<svg xmlns="http://www.w3.org/2000/svg" xmlns:xlink="http://www.w3.org/1999/xlink" width="500" zoomAndPan="magnify" viewBox="0 0 375 374.999991" height="500" preserveAspectRatio="xMidYMid meet" version="1.0"><defs><clipPath id="0274a7220c"><path d="M 125.15625 74 L 249.65625 74 L 249.65625 375 L 125.15625 375 Z M 125.15625 74 " clip-rule="nonzero"/></clipPath></defs><g clip-path="url(#0274a7220c)"><path fill="#fff500" d="M 135.757812 220.671875 C 135.949219 220.671875 136.136719 220.664062 136.328125 220.652344 C 141.609375 220.34375 145.636719 215.8125 145.324219 210.53125 C 144.699219 199.867188 144.414062 190.132812 144.417969 181.269531 C 144.375 142.1875 150.042969 119.996094 155.925781 108.046875 L 155.925781 360.652344 C 155.925781 368.582031 162.355469 375.015625 170.292969 375.015625 C 178.222656 375.015625 184.648438 368.582031 184.648438 360.652344 L 184.648438 208.160156 L 189.910156 208.160156 L 189.910156 360.648438 C 189.910156 368.582031 196.339844 375.015625 204.273438 375.015625 C 212.207031 375.015625 218.632812 368.582031 218.632812 360.648438 L 218.632812 107.335938 C 219.472656 108.96875 220.308594 110.785156 221.136719 112.851562 C 226.222656 125.585938 230.546875 146.949219 230.53125 181.269531 C 230.535156 190.140625 230.25 199.867188 229.628906 210.539062 C 229.320312 215.816406 233.351562 220.347656 238.628906 220.65625 C 238.820312 220.664062 239.003906 220.671875 239.195312 220.671875 C 244.230469 220.671875 248.453125 216.742188 248.746094 211.648438 C 249.386719 200.644531 249.683594 190.542969 249.6875 181.269531 C 249.636719 133.445312 241.929688 107.363281 231.96875 92.183594 C 226.992188 84.632812 221.304688 79.960938 216.15625 77.386719 C 214.503906 76.554688 212.9375 75.957031 211.476562 75.503906 C 209.902344 74.777344 208.152344 74.355469 206.300781 74.355469 L 205.398438 74.355469 C 204.933594 74.328125 204.5 74.3125 204.128906 74.3125 C 203.640625 74.3125 203.238281 74.332031 202.90625 74.355469 L 172.039062 74.355469 C 171.707031 74.332031 171.304688 74.3125 170.824219 74.3125 C 170.453125 74.3125 170.019531 74.328125 169.5625 74.355469 L 168.257812 74.355469 C 166.109375 74.355469 164.089844 74.910156 162.328125 75.875 C 161.199219 76.277344 160.019531 76.765625 158.792969 77.382812 C 151.003906 81.257812 142.300781 89.8125 136.015625 105.777344 C 129.671875 121.796875 125.28125 145.375 125.265625 181.269531 C 125.265625 190.546875 125.5625 200.648438 126.210938 211.65625 C 126.507812 216.746094 130.726562 220.671875 135.757812 220.671875 Z M 135.757812 220.671875 " fill-opacity="1" fill-rule="nonzero"/></g><path fill="#fff500" d="M 187.28125 69.875 C 202.554688 69.875 214.9375 49.019531 214.9375 29.722656 C 214.9375 10.425781 202.554688 0 187.28125 0 C 172.003906 0 159.621094 10.425781 159.621094 29.722656 C 159.621094 49.019531 172.003906 69.875 187.28125 69.875 Z M 187.28125 69.875 " fill-opacity="1" fill-rule="nonzero"/></svg>