<svg xmlns="http://www.w3.org/2000/svg" xmlns:xlink="http://www.w3.org/1999/xlink" width="500" zoomAndPan="magnify" viewBox="0 0 375 374.999991" height="500" preserveAspectRatio="xMidYMid meet" version="1.0"><path fill="#eb0000" d="M 257.207031 152.570312 L 241.210938 78.222656 C 241.074219 77.609375 240.867188 76.953125 240.601562 76.359375 C 238.4375 71.488281 232.644531 69.390625 227.855469 71.707031 L 213.390625 78.164062 L 162.441406 78.164062 C 156.042969 75.25 146.320312 70.789062 145.867188 70.976562 C 140.769531 69.878906 135.746094 73.125 134.648438 78.222656 L 118.667969 152.519531 C 116.785156 158.695312 98.242188 219.582031 98.242188 219.582031 C 96.484375 225.894531 105.496094 228.855469 107.878906 222.847656 L 132.65625 156.699219 L 132.703125 156.554688 L 132.828125 156.113281 L 150.339844 93.976562 L 150.609375 94.09375 C 150.78125 101.128906 151.179688 110 151.703125 119.6875 C 157.652344 121.960938 169.488281 126.101562 178.195312 126.742188 C 188.449219 127.496094 163.929688 129.269531 152.113281 126.972656 C 152.3125 130.398438 152.523438 133.882812 152.742188 137.398438 C 158.113281 139.476562 169.941406 143.714844 178.539062 144.34375 C 188.449219 145.074219 164.117188 146.804688 153.191406 144.433594 C 153.402344 147.695312 153.617188 150.949219 153.832031 154.175781 C 159.589844 156.355469 170.480469 160.113281 178.539062 160.703125 C 188.125 161.410156 165.667969 163.054688 154.300781 161.015625 C 155.007812 171.238281 155.707031 180.871094 156.304688 188.832031 C 153.882812 190.292969 151.921875 192.546875 150.863281 195.402344 L 121.433594 275.023438 C 120.855469 276.449219 120.558594 277.957031 120.671875 279.574219 L 126.585938 366.023438 C 126.921875 370.824219 130.980469 374.582031 135.84375 374.46875 C 140.847656 374.351562 144.8125 370.199219 144.695312 365.191406 L 142.734375 281.175781 L 165.917969 226.199219 C 172.863281 223.625 181.128906 221.238281 187.929688 221.238281 C 194.730469 221.238281 202.996094 223.625 209.941406 226.199219 L 233.125 281.175781 L 231.164062 365.191406 C 231.0625 370.003906 234.757812 374.117188 239.609375 374.449219 C 244.605469 374.789062 248.933594 371.019531 249.273438 366.023438 L 255.1875 279.574219 C 255.296875 278.089844 255.015625 276.472656 254.425781 275.023438 L 224.996094 195.402344 C 223.949219 192.546875 221.976562 190.300781 219.554688 188.839844 C 220.148438 180.878906 220.851562 171.242188 221.558594 161.015625 C 210.1875 163.054688 187.738281 161.410156 197.320312 160.703125 C 205.378906 160.113281 216.265625 156.355469 222.023438 154.175781 C 222.242188 150.949219 222.457031 147.695312 222.667969 144.433594 C 211.742188 146.804688 187.414062 145.074219 197.320312 144.34375 C 205.917969 143.710938 217.746094 139.476562 223.117188 137.398438 C 223.335938 133.882812 223.546875 130.398438 223.746094 126.972656 C 211.929688 129.269531 187.414062 127.492188 197.664062 126.738281 C 206.371094 126.101562 218.207031 121.960938 224.15625 119.6875 C 224.679688 110 225.078125 101.128906 225.253906 94.09375 L 225.523438 93.972656 L 243.03125 156.113281 C 243.03125 156.113281 243.15625 156.558594 243.15625 156.558594 C 243.1875 156.691406 267.933594 222.707031 267.980469 222.847656 C 268.921875 225.339844 271.648438 226.71875 274.230469 225.933594 C 276.921875 225.113281 278.4375 222.269531 277.617188 219.582031 C 277.835938 220.320312 257.914062 154.84375 257.207031 152.570312 Z M 257.207031 152.570312 " fill-opacity="1" fill-rule="nonzero"/><path fill="#eb0000" d="M 216.894531 29.097656 C 216.894531 13.101562 203.925781 0.132812 187.929688 0.132812 C 171.933594 0.132812 158.964844 13.101562 158.964844 29.097656 C 158.964844 45.09375 171.933594 70.242188 187.929688 70.242188 C 203.925781 70.242188 216.894531 45.09375 216.894531 29.097656 Z M 216.894531 29.097656 " fill-opacity="1" fill-rule="nonzero"/></svg>