<svg xmlns="http://www.w3.org/2000/svg" xmlns:xlink="http://www.w3.org/1999/xlink" width="500" zoomAndPan="magnify" viewBox="0 0 375 374.999991" height="500" preserveAspectRatio="xMidYMid meet" version="1.0"><defs><clipPath id="355f57de28"><path d="M 93.75 96 L 281.25 96 L 281.25 375 L 93.75 375 Z M 93.75 96 " clip-rule="nonzero"/></clipPath></defs><g clip-path="url(#355f57de28)"><path fill="#ff9a00" d="M 164.417969 96.191406 L 93.742188 169.667969 L 108.4375 184.363281 L 164.417969 124.882812 L 165.117188 224.945312 L 116.835938 373.996094 C 116.835938 373.996094 148.324219 374.78125 149.023438 373.382812 C 149.371094 372.683594 184.011719 235.449219 185.410156 233.34375 L 224.597656 373.292969 L 254.6875 373.292969 L 206.402344 225.644531 L 207.101562 124.878906 L 264.484375 182.960938 L 281.277344 168.964844 L 208.503906 96.1875 L 164.417969 96.1875 Z M 164.417969 96.191406 " fill-opacity="1" fill-rule="evenodd"/></g><path fill="#ff9a00" d="M 186.105469 0.324219 C 120.328125 1.726562 121.027344 87.796875 184.003906 88.496094 C 251.882812 88.496094 253.980469 1.027344 186.105469 0.324219 Z M 186.105469 0.324219 " fill-opacity="1" fill-rule="evenodd"/></svg>