<svg xmlns="http://www.w3.org/2000/svg" xmlns:xlink="http://www.w3.org/1999/xlink" width="500" zoomAndPan="magnify" viewBox="0 0 375 374.999991" height="500" preserveAspectRatio="xMidYMid meet" version="1.0"><defs><clipPath id="1c8dabb598"><path d="M 73.125 63 L 301.875 63 L 301.875 375 L 73.125 375 Z M 73.125 63 " clip-rule="nonzero"/></clipPath></defs><g clip-path="url(#1c8dabb598)"><path fill="#fff500" d="M 284.914062 123.398438 C 271.960938 94.703125 252.824219 78.773438 236.839844 70.921875 C 228.675781 66.875 221.425781 64.796875 216.058594 63.71875 C 213.652344 66.445312 210.859375 68.792969 207.78125 70.71875 C 202.8125 73.832031 197.105469 75.824219 190.996094 76.367188 C 189.867188 76.464844 188.71875 76.523438 187.5625 76.523438 C 186.394531 76.523438 185.222656 76.457031 184.054688 76.347656 C 182.320312 76.183594 180.59375 75.921875 178.894531 75.527344 C 174.730469 74.558594 170.855469 72.898438 167.335938 70.699219 C 164.265625 68.78125 161.488281 66.4375 159.070312 63.703125 C 150.175781 65.472656 136.066406 69.996094 121.523438 81.640625 C 110.132812 90.777344 98.792969 104.308594 90.136719 123.398438 C 81.457031 142.5 75.378906 167.058594 73.746094 198.621094 C 73.300781 207.199219 79.894531 214.515625 88.472656 214.960938 C 88.746094 214.972656 89.019531 214.980469 89.289062 214.980469 C 97.507812 214.980469 104.382812 208.539062 104.8125 200.230469 C 106.289062 171.785156 111.683594 151.171875 118.457031 136.273438 C 121.359375 129.941406 124.492188 124.636719 127.722656 120.121094 C 127.425781 122.539062 127.253906 124.996094 127.253906 127.492188 C 127.253906 131.789062 127.714844 135.976562 128.570312 140.019531 C 116.847656 160.066406 109.757812 183.644531 109.757812 203.023438 C 109.757812 223.175781 117.425781 238.929688 130 249.976562 C 123.257812 268.015625 114.742188 298.296875 107.167969 348.105469 C 105.242188 360.847656 114.007812 372.730469 126.746094 374.660156 C 127.929688 374.839844 129.105469 374.925781 130.265625 374.925781 C 141.609375 374.925781 151.554688 366.636719 153.304688 355.082031 C 159.871094 311.605469 167.121094 285.09375 172.351562 270.097656 C 172.605469 269.375 172.847656 268.703125 173.09375 268.03125 C 177.769531 268.632812 182.589844 268.949219 187.523438 268.949219 C 192.457031 268.949219 197.277344 268.632812 201.953125 268.03125 C 207.214844 282.601562 214.886719 309.5 221.746094 355.078125 C 223.492188 366.636719 233.441406 374.925781 244.785156 374.925781 C 245.945312 374.925781 247.121094 374.839844 248.300781 374.660156 C 261.039062 372.734375 269.808594 360.84375 267.882812 348.105469 C 260.308594 298.296875 251.792969 268.015625 245.050781 249.976562 C 257.628906 238.929688 265.296875 223.175781 265.296875 203.019531 C 265.296875 183.644531 258.207031 160.066406 246.484375 140.015625 C 247.339844 135.972656 247.796875 131.785156 247.796875 127.488281 C 247.796875 124.980469 247.625 122.515625 247.328125 120.089844 C 251.042969 125.257812 254.621094 131.5 257.851562 139.132812 C 264.03125 153.773438 268.859375 173.566406 270.242188 200.230469 C 270.671875 208.535156 277.542969 214.980469 285.765625 214.980469 C 286.035156 214.980469 286.308594 214.972656 286.582031 214.957031 C 295.15625 214.515625 301.75 207.199219 301.308594 198.621094 C 299.671875 167.054688 293.597656 142.496094 284.914062 123.398438 Z M 284.914062 123.398438 " fill-opacity="1" fill-rule="nonzero"/></g><path fill="#fff500" d="M 179.597656 72.496094 C 180.851562 72.785156 182.101562 73 183.347656 73.152344 C 186.171875 73.496094 188.972656 73.492188 191.699219 73.164062 C 195.9375 72.65625 199.996094 71.371094 203.707031 69.433594 C 206.886719 67.773438 209.808594 65.632812 212.351562 63.078125 C 216.785156 58.625 220.078125 52.925781 221.609375 46.351562 C 225.992188 27.53125 214.285156 8.726562 195.46875 4.339844 C 176.648438 -0.0390625 157.839844 11.664062 153.453125 30.484375 C 150.621094 42.65625 154.519531 54.8125 162.714844 63.078125 C 165.210938 65.59375 168.101562 67.757812 171.332031 69.441406 C 173.890625 70.773438 176.660156 71.808594 179.597656 72.496094 Z M 179.597656 72.496094 " fill-opacity="1" fill-rule="nonzero"/></svg>