<svg xmlns="http://www.w3.org/2000/svg" xmlns:xlink="http://www.w3.org/1999/xlink" width="500" zoomAndPan="magnify" viewBox="0 0 375 374.999991" height="500" preserveAspectRatio="xMidYMid meet" version="1.0"><defs><clipPath id="43457f28f0"><path d="M 92.109375 81 L 282.609375 81 L 282.609375 375 L 92.109375 375 Z M 92.109375 81 " clip-rule="nonzero"/></clipPath></defs><g clip-path="url(#43457f28f0)"><path fill="#ff9a00" d="M 235.628906 86.285156 C 228.535156 82.371094 221.992188 81.417969 217.804688 81.433594 C 217.761719 81.433594 217.730469 81.4375 217.6875 81.4375 C 217.382812 81.414062 217.078125 81.390625 216.769531 81.390625 L 158.335938 81.390625 C 158.027344 81.390625 157.722656 81.414062 157.417969 81.4375 C 157.375 81.4375 157.34375 81.433594 157.296875 81.433594 C 153.109375 81.417969 146.566406 82.371094 139.46875 86.285156 C 128.726562 92.160156 117.664062 104.195312 109.230469 125.730469 C 100.742188 147.351562 94.367188 178.835938 92.578125 226.28125 C 92.289062 234.101562 98.386719 240.679688 106.210938 240.96875 C 106.390625 240.976562 106.570312 240.980469 106.746094 240.980469 C 114.328125 240.980469 120.609375 234.976562 120.898438 227.339844 C 121.070312 222.59375 121.296875 218.054688 121.5625 213.667969 C 116.511719 205.664062 113.558594 195.269531 113.558594 181.828125 C 113.558594 160.582031 121.558594 142.136719 136.078125 128.300781 C 136.613281 127.789062 137.253906 127.300781 137.96875 126.828125 C 125.046875 139.285156 116.707031 157.082031 116.707031 178.679688 C 116.707031 197.222656 122.863281 213.292969 132.777344 225.644531 C 130.242188 223.773438 127.898438 221.664062 125.789062 219.277344 L 145.054688 359.21875 C 145.054688 367.921875 153.769531 374.976562 164.515625 374.976562 C 175.265625 374.976562 183.984375 367.921875 183.984375 359.21875 L 183.984375 252.074219 C 185.167969 252.136719 186.355469 252.167969 187.550781 252.167969 C 188.742188 252.167969 189.933594 252.136719 191.117188 252.074219 L 191.117188 359.21875 C 191.117188 367.921875 199.835938 374.976562 210.585938 374.976562 C 221.332031 374.976562 230.046875 367.921875 230.046875 359.21875 L 249.3125 219.277344 C 247.199219 221.664062 244.855469 223.773438 242.320312 225.648438 C 252.238281 213.292969 258.394531 197.222656 258.394531 178.679688 C 258.394531 157.085938 250.054688 139.289062 237.136719 126.832031 C 237.851562 127.300781 238.488281 127.789062 239.023438 128.300781 C 253.546875 142.140625 261.542969 160.582031 261.542969 181.828125 C 261.542969 195.273438 258.585938 205.671875 253.535156 213.675781 C 253.804688 218.054688 254.03125 222.597656 254.203125 227.335938 C 254.492188 234.976562 260.769531 240.980469 268.351562 240.980469 C 268.53125 240.980469 268.710938 240.976562 268.890625 240.96875 C 276.710938 240.675781 282.816406 234.101562 282.523438 226.28125 C 280.09375 163.054688 269.691406 128.058594 256.671875 107.238281 C 250.152344 96.886719 242.738281 90.171875 235.628906 86.285156 Z M 235.628906 86.285156 " fill-opacity="1" fill-rule="nonzero"/></g><path fill="#ff9a00" d="M 222.972656 35.421875 C 222.972656 36.582031 222.917969 37.738281 222.804688 38.894531 C 222.691406 40.046875 222.519531 41.195312 222.292969 42.332031 C 222.066406 43.46875 221.785156 44.59375 221.449219 45.703125 C 221.113281 46.816406 220.722656 47.90625 220.277344 48.976562 C 219.832031 50.050781 219.339844 51.097656 218.792969 52.121094 C 218.246094 53.144531 217.648438 54.136719 217.003906 55.101562 C 216.359375 56.066406 215.667969 56.996094 214.933594 57.894531 C 214.199219 58.789062 213.417969 59.648438 212.597656 60.46875 C 211.777344 61.289062 210.921875 62.066406 210.023438 62.804688 C 209.125 63.539062 208.195312 64.230469 207.230469 64.875 C 206.265625 65.519531 205.273438 66.113281 204.25 66.660156 C 203.226562 67.207031 202.179688 67.703125 201.105469 68.148438 C 200.035156 68.589844 198.945312 68.980469 197.835938 69.320312 C 196.722656 69.65625 195.601562 69.9375 194.460938 70.164062 C 193.324219 70.390625 192.179688 70.558594 191.023438 70.671875 C 189.871094 70.785156 188.710938 70.84375 187.550781 70.84375 C 186.390625 70.84375 185.234375 70.785156 184.078125 70.671875 C 182.925781 70.558594 181.777344 70.390625 180.640625 70.164062 C 179.503906 69.9375 178.378906 69.65625 177.269531 69.320312 C 176.160156 68.980469 175.070312 68.589844 173.996094 68.148438 C 172.925781 67.703125 171.878906 67.207031 170.855469 66.660156 C 169.832031 66.113281 168.835938 65.519531 167.871094 64.875 C 166.90625 64.230469 165.976562 63.539062 165.082031 62.804688 C 164.183594 62.066406 163.324219 61.289062 162.503906 60.46875 C 161.683594 59.648438 160.90625 58.789062 160.171875 57.894531 C 159.433594 56.996094 158.746094 56.066406 158.101562 55.101562 C 157.457031 54.136719 156.859375 53.144531 156.3125 52.121094 C 155.765625 51.097656 155.269531 50.050781 154.828125 48.976562 C 154.382812 47.90625 153.992188 46.816406 153.65625 45.703125 C 153.320312 44.59375 153.035156 43.46875 152.8125 42.332031 C 152.585938 41.195312 152.414062 40.046875 152.300781 38.894531 C 152.1875 37.738281 152.128906 36.582031 152.128906 35.421875 C 152.128906 34.261719 152.1875 33.105469 152.300781 31.949219 C 152.414062 30.796875 152.585938 29.648438 152.8125 28.511719 C 153.035156 27.375 153.320312 26.25 153.65625 25.140625 C 153.992188 24.03125 154.382812 22.9375 154.828125 21.867188 C 155.269531 20.792969 155.765625 19.746094 156.3125 18.722656 C 156.859375 17.699219 157.457031 16.707031 158.101562 15.742188 C 158.746094 14.777344 159.433594 13.847656 160.171875 12.949219 C 160.90625 12.054688 161.683594 11.195312 162.503906 10.375 C 163.324219 9.554688 164.183594 8.777344 165.082031 8.039062 C 165.976562 7.304688 166.90625 6.613281 167.871094 5.96875 C 168.835938 5.324219 169.832031 4.730469 170.855469 4.183594 C 171.878906 3.636719 172.925781 3.140625 173.996094 2.695312 C 175.070312 2.253906 176.160156 1.863281 177.269531 1.523438 C 178.378906 1.1875 179.503906 0.90625 180.640625 0.679688 C 181.777344 0.453125 182.925781 0.285156 184.078125 0.171875 C 185.234375 0.0585938 186.390625 0 187.550781 0 C 188.710938 0 189.871094 0.0585938 191.023438 0.171875 C 192.179688 0.285156 193.324219 0.453125 194.460938 0.679688 C 195.601562 0.90625 196.722656 1.1875 197.835938 1.523438 C 198.945312 1.863281 200.035156 2.253906 201.105469 2.695312 C 202.179688 3.140625 203.226562 3.636719 204.25 4.183594 C 205.273438 4.730469 206.265625 5.324219 207.230469 5.96875 C 208.195312 6.613281 209.125 7.304688 210.023438 8.039062 C 210.921875 8.777344 211.777344 9.554688 212.597656 10.375 C 213.417969 11.195312 214.199219 12.054688 214.933594 12.949219 C 215.667969 13.847656 216.359375 14.777344 217.003906 15.742188 C 217.648438 16.707031 218.246094 17.699219 218.792969 18.722656 C 219.339844 19.746094 219.832031 20.792969 220.277344 21.867188 C 220.722656 22.9375 221.113281 24.03125 221.449219 25.140625 C 221.785156 26.25 222.066406 27.375 222.292969 28.511719 C 222.519531 29.648438 222.691406 30.796875 222.804688 31.949219 C 222.917969 33.105469 222.972656 34.261719 222.972656 35.421875 Z M 222.972656 35.421875 " fill-opacity="1" fill-rule="nonzero"/></svg>