<svg xmlns="http://www.w3.org/2000/svg" xmlns:xlink="http://www.w3.org/1999/xlink" width="500" zoomAndPan="magnify" viewBox="0 0 375 374.999991" height="500" preserveAspectRatio="xMidYMid meet" version="1.0"><path fill="#eb0000" d="M 266.253906 84.636719 C 253.761719 76.398438 242.207031 72.109375 233.546875 69.871094 C 225.386719 87.15625 207.792969 99.152344 187.441406 99.152344 C 167.089844 99.152344 149.492188 87.15625 141.335938 69.867188 C 132.675781 72.105469 121.117188 76.394531 108.625 84.632812 C 83.617188 101.03125 56 133.378906 41.617188 192.363281 C 39.621094 200.488281 44.585938 208.691406 52.710938 210.695312 C 53.925781 210.992188 55.144531 211.136719 56.339844 211.136719 C 59.144531 211.136719 61.839844 210.339844 64.167969 208.933594 C 67.179688 178.496094 80.203125 149.824219 99.164062 127.515625 C 80.519531 152.453125 68.773438 184.375 68.773438 217.558594 C 68.773438 290.445312 125.4375 320.925781 187.445312 320.925781 C 249.445312 320.925781 306.113281 290.445312 306.113281 217.558594 C 306.113281 184.378906 294.367188 152.453125 275.722656 127.515625 C 294.683594 149.824219 307.707031 178.5 310.71875 208.933594 C 313.042969 210.339844 315.738281 211.136719 318.539062 211.136719 C 319.738281 211.136719 320.953125 210.992188 322.167969 210.695312 C 330.289062 208.695312 335.257812 200.492188 333.261719 192.363281 C 318.875 133.378906 291.261719 101.03125 266.253906 84.636719 Z M 266.253906 84.636719 " fill-opacity="1" fill-rule="nonzero"/><path fill="#eb0000" d="M 123.636719 351.398438 C 123.636719 364.460938 136.722656 375.050781 152.859375 375.050781 C 169 375.050781 182.085938 364.460938 182.085938 351.398438 L 182.085938 325.667969 C 157.945312 325.035156 134.796875 320.070312 115.460938 310.152344 Z M 123.636719 351.398438 " fill-opacity="1" fill-rule="nonzero"/><path fill="#eb0000" d="M 192.796875 351.398438 C 192.796875 364.460938 205.886719 375.050781 222.027344 375.050781 C 238.160156 375.050781 251.25 364.460938 251.25 351.398438 L 259.429688 310.148438 C 240.089844 320.070312 216.941406 325.035156 192.796875 325.671875 Z M 192.796875 351.398438 " fill-opacity="1" fill-rule="nonzero"/><path fill="#eb0000" d="M 235.640625 48.199219 C 235.640625 49.777344 235.5625 51.351562 235.410156 52.921875 C 235.253906 54.496094 235.023438 56.054688 234.714844 57.601562 C 234.40625 59.152344 234.023438 60.679688 233.566406 62.191406 C 233.109375 63.703125 232.578125 65.1875 231.972656 66.644531 C 231.367188 68.101562 230.695312 69.527344 229.949219 70.921875 C 229.207031 72.3125 228.394531 73.664062 227.519531 74.976562 C 226.640625 76.289062 225.703125 77.558594 224.699219 78.777344 C 223.699219 79.996094 222.640625 81.164062 221.523438 82.28125 C 220.40625 83.398438 219.238281 84.457031 218.019531 85.457031 C 216.796875 86.460938 215.53125 87.398438 214.21875 88.277344 C 212.90625 89.152344 211.554688 89.964844 210.164062 90.707031 C 208.769531 91.453125 207.34375 92.125 205.886719 92.730469 C 204.429688 93.335938 202.941406 93.867188 201.433594 94.324219 C 199.921875 94.78125 198.390625 95.164062 196.84375 95.472656 C 195.296875 95.78125 193.734375 96.011719 192.164062 96.167969 C 190.59375 96.324219 189.019531 96.398438 187.441406 96.398438 C 185.863281 96.398438 184.289062 96.324219 182.714844 96.167969 C 181.144531 96.011719 179.585938 95.78125 178.039062 95.472656 C 176.488281 95.164062 174.960938 94.78125 173.449219 94.324219 C 171.9375 93.867188 170.453125 93.335938 168.996094 92.730469 C 167.535156 92.125 166.113281 91.453125 164.71875 90.707031 C 163.328125 89.964844 161.972656 89.152344 160.660156 88.277344 C 159.347656 87.398438 158.082031 86.460938 156.863281 85.457031 C 155.640625 84.457031 154.472656 83.398438 153.359375 82.28125 C 152.242188 81.164062 151.183594 79.996094 150.179688 78.777344 C 149.179688 77.558594 148.242188 76.289062 147.363281 74.976562 C 146.488281 73.664062 145.675781 72.3125 144.933594 70.921875 C 144.1875 69.527344 143.511719 68.101562 142.910156 66.644531 C 142.304688 65.1875 141.773438 63.703125 141.316406 62.191406 C 140.859375 60.679688 140.472656 59.152344 140.167969 57.601562 C 139.859375 56.054688 139.628906 54.496094 139.472656 52.921875 C 139.316406 51.351562 139.242188 49.777344 139.242188 48.199219 C 139.242188 46.621094 139.316406 45.046875 139.472656 43.476562 C 139.628906 41.902344 139.859375 40.34375 140.167969 38.796875 C 140.472656 37.246094 140.859375 35.71875 141.316406 34.207031 C 141.773438 32.695312 142.304688 31.210938 142.910156 29.753906 C 143.511719 28.296875 144.1875 26.871094 144.933594 25.476562 C 145.675781 24.085938 146.488281 22.734375 147.363281 21.421875 C 148.242188 20.109375 149.179688 18.839844 150.179688 17.621094 C 151.183594 16.402344 152.242188 15.234375 153.359375 14.117188 C 154.472656 13 155.640625 11.941406 156.863281 10.941406 C 158.082031 9.9375 159.347656 9 160.660156 8.121094 C 161.972656 7.246094 163.328125 6.433594 164.71875 5.691406 C 166.113281 4.945312 167.535156 4.273438 168.996094 3.667969 C 170.453125 3.0625 171.9375 2.53125 173.449219 2.074219 C 174.960938 1.617188 176.488281 1.234375 178.039062 0.925781 C 179.585938 0.617188 181.144531 0.386719 182.714844 0.230469 C 184.289062 0.0742188 185.863281 0 187.441406 0 C 189.019531 0 190.59375 0.0742188 192.164062 0.230469 C 193.734375 0.386719 195.296875 0.617188 196.84375 0.925781 C 198.390625 1.234375 199.921875 1.617188 201.433594 2.074219 C 202.941406 2.53125 204.429688 3.0625 205.886719 3.667969 C 207.34375 4.273438 208.769531 4.945312 210.164062 5.691406 C 211.554688 6.433594 212.90625 7.246094 214.21875 8.121094 C 215.53125 9 216.796875 9.9375 218.019531 10.941406 C 219.238281 11.941406 220.40625 13 221.523438 14.117188 C 222.640625 15.234375 223.699219 16.402344 224.699219 17.621094 C 225.703125 18.839844 226.640625 20.109375 227.519531 21.421875 C 228.394531 22.734375 229.207031 24.085938 229.949219 25.476562 C 230.695312 26.871094 231.367188 28.296875 231.972656 29.753906 C 232.578125 31.210938 233.109375 32.695312 233.566406 34.207031 C 234.023438 35.71875 234.40625 37.246094 234.714844 38.796875 C 235.023438 40.34375 235.253906 41.902344 235.410156 43.476562 C 235.5625 45.046875 235.640625 46.621094 235.640625 48.199219 Z M 235.640625 48.199219 " fill-opacity="1" fill-rule="nonzero"/></svg>