<svg xmlns="http://www.w3.org/2000/svg" xmlns:xlink="http://www.w3.org/1999/xlink" width="500" zoomAndPan="magnify" viewBox="0 0 375 374.999991" height="500" preserveAspectRatio="xMidYMid meet" version="1.0"><path fill="#008b1f" d="M 221.929688 34.640625 C 221.929688 35.765625 221.875 36.894531 221.761719 38.015625 C 221.652344 39.136719 221.488281 40.253906 221.265625 41.359375 C 221.046875 42.464844 220.773438 43.558594 220.445312 44.636719 C 220.117188 45.71875 219.738281 46.777344 219.308594 47.820312 C 218.875 48.863281 218.394531 49.882812 217.863281 50.878906 C 217.332031 51.871094 216.75 52.839844 216.125 53.777344 C 215.496094 54.714844 214.824219 55.621094 214.109375 56.492188 C 213.394531 57.363281 212.636719 58.199219 211.839844 58.996094 C 211.042969 59.792969 210.207031 60.550781 209.335938 61.265625 C 208.464844 61.980469 207.558594 62.652344 206.621094 63.28125 C 205.683594 63.90625 204.714844 64.484375 203.722656 65.019531 C 202.726562 65.550781 201.707031 66.03125 200.664062 66.464844 C 199.621094 66.894531 198.5625 67.273438 197.484375 67.601562 C 196.402344 67.929688 195.308594 68.203125 194.203125 68.421875 C 193.097656 68.644531 191.984375 68.808594 190.859375 68.917969 C 189.738281 69.03125 188.613281 69.085938 187.484375 69.085938 C 186.355469 69.085938 185.230469 69.03125 184.105469 68.917969 C 182.984375 68.808594 181.871094 68.644531 180.761719 68.421875 C 179.65625 68.203125 178.5625 67.929688 177.484375 67.601562 C 176.40625 67.273438 175.34375 66.894531 174.300781 66.464844 C 173.257812 66.03125 172.242188 65.550781 171.246094 65.019531 C 170.25 64.484375 169.285156 63.90625 168.347656 63.28125 C 167.410156 62.652344 166.503906 61.980469 165.632812 61.265625 C 164.757812 60.550781 163.925781 59.792969 163.125 58.996094 C 162.328125 58.199219 161.570312 57.363281 160.855469 56.492188 C 160.140625 55.621094 159.46875 54.714844 158.84375 53.777344 C 158.214844 52.839844 157.636719 51.871094 157.105469 50.878906 C 156.574219 49.882812 156.089844 48.863281 155.660156 47.820312 C 155.226562 46.777344 154.847656 45.71875 154.519531 44.636719 C 154.195312 43.558594 153.917969 42.464844 153.699219 41.359375 C 153.480469 40.253906 153.3125 39.136719 153.203125 38.015625 C 153.09375 36.894531 153.039062 35.765625 153.039062 34.640625 C 153.039062 33.511719 153.09375 32.386719 153.203125 31.261719 C 153.3125 30.140625 153.480469 29.027344 153.699219 27.917969 C 153.917969 26.8125 154.195312 25.71875 154.519531 24.640625 C 154.847656 23.5625 155.226562 22.5 155.660156 21.457031 C 156.089844 20.414062 156.574219 19.398438 157.105469 18.402344 C 157.636719 17.40625 158.214844 16.441406 158.84375 15.503906 C 159.46875 14.5625 160.140625 13.660156 160.855469 12.789062 C 161.570312 11.914062 162.328125 11.082031 163.125 10.28125 C 163.925781 9.484375 164.757812 8.726562 165.632812 8.011719 C 166.503906 7.296875 167.410156 6.625 168.347656 6 C 169.285156 5.371094 170.25 4.792969 171.246094 4.261719 C 172.242188 3.730469 173.257812 3.246094 174.300781 2.816406 C 175.34375 2.382812 176.40625 2.003906 177.484375 1.675781 C 178.5625 1.347656 179.65625 1.074219 180.761719 0.855469 C 181.871094 0.636719 182.984375 0.46875 184.105469 0.359375 C 185.230469 0.25 186.355469 0.195312 187.484375 0.195312 C 188.613281 0.195312 189.738281 0.25 190.859375 0.359375 C 191.984375 0.46875 193.097656 0.636719 194.203125 0.855469 C 195.308594 1.074219 196.402344 1.347656 197.484375 1.675781 C 198.5625 2.003906 199.621094 2.382812 200.664062 2.816406 C 201.707031 3.246094 202.726562 3.730469 203.722656 4.261719 C 204.714844 4.792969 205.683594 5.371094 206.621094 6 C 207.558594 6.625 208.464844 7.296875 209.335938 8.011719 C 210.207031 8.726562 211.042969 9.484375 211.839844 10.28125 C 212.636719 11.082031 213.394531 11.914062 214.109375 12.789062 C 214.824219 13.660156 215.496094 14.5625 216.125 15.503906 C 216.75 16.441406 217.332031 17.40625 217.863281 18.402344 C 218.394531 19.398438 218.875 20.414062 219.308594 21.457031 C 219.738281 22.5 220.117188 23.5625 220.445312 24.640625 C 220.773438 25.71875 221.046875 26.8125 221.265625 27.917969 C 221.488281 29.027344 221.652344 30.140625 221.761719 31.261719 C 221.875 32.386719 221.929688 33.511719 221.929688 34.640625 Z M 221.929688 34.640625 " fill-opacity="1" fill-rule="nonzero"/><path fill="#008b1f" d="M 221.757812 75.074219 L 153.210938 75.074219 C 141.65625 75.074219 131.058594 81.6875 126.15625 92.148438 C 108.675781 129.433594 101.710938 170.824219 106.050781 211.820312 C 108.105469 231.25 136.398438 227.738281 134.402344 209.335938 C 131.421875 181.847656 134.28125 154.152344 142.628906 128.011719 C 143.144531 126.390625 145.550781 126.78125 145.550781 128.484375 L 145.550781 355.261719 C 145.550781 365.570312 153.613281 374.410156 163.917969 374.601562 C 174.417969 374.792969 182.992188 366.339844 182.992188 355.882812 L 182.992188 214.355469 C 182.992188 211.875 185.003906 209.863281 187.484375 209.863281 C 189.964844 209.863281 191.976562 211.875 191.976562 214.355469 L 191.976562 355.261719 C 191.976562 365.570312 200.039062 374.410156 210.347656 374.601562 C 220.847656 374.792969 229.417969 366.339844 229.417969 355.882812 L 229.417969 128.480469 C 229.417969 126.78125 231.820312 126.390625 232.335938 128.007812 C 240.613281 153.925781 243.496094 181.371094 240.636719 208.628906 C 238.582031 228.25 266.875 230.890625 268.886719 212.109375 C 273.289062 171.019531 266.332031 129.523438 248.8125 92.152344 C 243.90625 81.6875 233.3125 75.074219 221.757812 75.074219 Z M 221.757812 75.074219 " fill-opacity="1" fill-rule="nonzero"/></svg>