<svg xmlns="http://www.w3.org/2000/svg" xmlns:xlink="http://www.w3.org/1999/xlink" width="500" zoomAndPan="magnify" viewBox="0 0 375 374.999991" height="500" preserveAspectRatio="xMidYMid meet" version="1.0"><defs><clipPath id="b6bc3d8e6a"><path d="M 98.4375 80 L 276.9375 80 L 276.9375 375 L 98.4375 375 Z M 98.4375 80 " clip-rule="nonzero"/></clipPath></defs><g clip-path="url(#b6bc3d8e6a)"><path fill="#33ff00" d="M 231.660156 84.289062 C 226.578125 81.808594 222.285156 81.0625 219.625 80.867188 C 218.84375 80.710938 218.039062 80.625 217.214844 80.625 L 157.886719 80.625 C 157.0625 80.625 156.253906 80.710938 155.476562 80.867188 C 152.816406 81.0625 148.519531 81.808594 143.433594 84.289062 C 134.003906 88.824219 122.777344 99.171875 114.320312 119.246094 C 105.792969 139.371094 99.460938 169.351562 98.59375 215.503906 C 98.46875 222.285156 103.867188 227.886719 110.652344 228.011719 C 110.726562 228.011719 110.804688 228.015625 110.878906 228.015625 C 117.5625 228.015625 123.039062 222.660156 123.160156 215.953125 C 124.1875 157.117188 134.925781 128.742188 143.695312 116.300781 C 144.167969 115.628906 144.628906 115.007812 145.085938 114.417969 L 143.488281 151.785156 C 136.453125 165.125 132.273438 180.136719 132.273438 192.675781 C 132.273438 205.878906 136.90625 216.421875 144.628906 224.140625 L 136.296875 353.308594 C 135.585938 364.3125 143.929688 373.804688 154.933594 374.515625 C 155.367188 374.546875 155.804688 374.558594 156.238281 374.558594 C 166.675781 374.558594 175.457031 366.445312 176.136719 355.878906 L 183.652344 239.4375 C 184.941406 239.5 186.238281 239.539062 187.554688 239.539062 C 188.863281 239.539062 190.160156 239.5 191.449219 239.4375 L 198.964844 355.878906 C 199.644531 366.445312 208.429688 374.558594 218.867188 374.558594 C 219.296875 374.558594 219.730469 374.546875 220.171875 374.515625 C 231.171875 373.804688 239.519531 364.308594 238.808594 353.308594 L 230.472656 224.144531 C 238.199219 216.421875 242.835938 205.878906 242.835938 192.671875 C 242.835938 180.136719 238.652344 165.125 231.621094 151.78125 L 230.019531 114.410156 C 232.996094 118.257812 236.269531 123.835938 239.429688 131.972656 C 245.722656 148.234375 251.195312 174.621094 251.941406 215.949219 C 252.066406 222.65625 257.542969 228.007812 264.222656 228.007812 C 264.300781 228.007812 264.375 228.007812 264.449219 228.007812 C 271.238281 227.882812 276.632812 222.28125 276.511719 215.496094 C 275.316406 154.007812 264.539062 121.066406 251.566406 102.265625 C 245.082031 92.921875 237.898438 87.304688 231.660156 84.289062 Z M 231.660156 84.289062 " fill-opacity="1" fill-rule="nonzero"/></g><path fill="#33ff00" d="M 195.390625 8.292969 C 196.492188 8.550781 197.578125 8.859375 198.652344 9.222656 C 199.722656 9.585938 200.773438 10 201.804688 10.46875 C 202.835938 10.933594 203.839844 11.449219 204.820312 12.015625 C 205.800781 12.582031 206.75 13.191406 207.667969 13.851562 C 208.589844 14.511719 209.472656 15.210938 210.324219 15.957031 C 211.175781 16.703125 211.988281 17.488281 212.761719 18.316406 C 213.535156 19.140625 214.265625 20 214.957031 20.898438 C 215.644531 21.796875 216.289062 22.726562 216.886719 23.6875 C 217.484375 24.644531 218.03125 25.632812 218.53125 26.648438 C 219.035156 27.664062 219.484375 28.699219 219.882812 29.757812 C 220.28125 30.816406 220.625 31.894531 220.917969 32.984375 C 221.214844 34.078125 221.453125 35.183594 221.636719 36.296875 C 221.820312 37.414062 221.949219 38.539062 222.023438 39.667969 C 222.097656 40.792969 222.117188 41.925781 222.082031 43.054688 C 222.042969 44.1875 221.953125 45.3125 221.804688 46.433594 C 221.65625 47.554688 221.457031 48.667969 221.199219 49.769531 C 220.941406 50.871094 220.632812 51.957031 220.269531 53.027344 C 219.90625 54.101562 219.492188 55.152344 219.023438 56.183594 C 218.558594 57.210938 218.042969 58.21875 217.476562 59.199219 C 216.910156 60.175781 216.300781 61.128906 215.640625 62.046875 C 214.980469 62.96875 214.28125 63.851562 213.535156 64.703125 C 212.789062 65.554688 212.003906 66.367188 211.175781 67.140625 C 210.351562 67.914062 209.488281 68.644531 208.59375 69.332031 C 207.695312 70.023438 206.765625 70.664062 205.804688 71.261719 C 204.84375 71.859375 203.859375 72.410156 202.84375 72.910156 C 201.828125 73.410156 200.792969 73.859375 199.734375 74.261719 C 198.675781 74.660156 197.597656 75.003906 196.507812 75.296875 C 195.414062 75.589844 194.308594 75.828125 193.191406 76.015625 C 192.078125 76.199219 190.953125 76.328125 189.824219 76.402344 C 188.695312 76.476562 187.566406 76.496094 186.4375 76.460938 C 185.304688 76.421875 184.179688 76.332031 183.058594 76.183594 C 181.9375 76.035156 180.824219 75.832031 179.722656 75.578125 C 178.621094 75.320312 177.535156 75.011719 176.460938 74.648438 C 175.390625 74.285156 174.339844 73.867188 173.308594 73.402344 C 172.277344 72.9375 171.273438 72.417969 170.292969 71.855469 C 169.3125 71.289062 168.363281 70.675781 167.445312 70.019531 C 166.523438 69.359375 165.640625 68.65625 164.789062 67.910156 C 163.9375 67.164062 163.125 66.378906 162.351562 65.554688 C 161.578125 64.730469 160.847656 63.867188 160.160156 62.96875 C 159.46875 62.074219 158.828125 61.144531 158.230469 60.183594 C 157.632812 59.222656 157.082031 58.234375 156.582031 57.222656 C 156.082031 56.207031 155.628906 55.171875 155.230469 54.113281 C 154.832031 53.054688 154.488281 51.976562 154.195312 50.882812 C 153.902344 49.792969 153.660156 48.6875 153.476562 47.570312 C 153.292969 46.453125 153.164062 45.332031 153.089844 44.203125 C 153.015625 43.074219 152.996094 41.945312 153.03125 40.8125 C 153.070312 39.683594 153.160156 38.558594 153.308594 37.4375 C 153.457031 36.3125 153.65625 35.203125 153.914062 34.101562 C 154.171875 33 154.480469 31.910156 154.84375 30.839844 C 155.207031 29.769531 155.621094 28.71875 156.089844 27.6875 C 156.554688 26.65625 157.070312 25.652344 157.636719 24.671875 C 158.203125 23.691406 158.816406 22.742188 159.472656 21.824219 C 160.132812 20.902344 160.835938 20.015625 161.582031 19.167969 C 162.324219 18.316406 163.113281 17.503906 163.9375 16.730469 C 164.761719 15.957031 165.625 15.226562 166.519531 14.535156 C 167.417969 13.847656 168.347656 13.203125 169.308594 12.605469 C 170.269531 12.007812 171.257812 11.460938 172.269531 10.957031 C 173.285156 10.457031 174.320312 10.007812 175.378906 9.609375 C 176.4375 9.210938 177.515625 8.863281 178.605469 8.570312 C 179.699219 8.277344 180.804688 8.039062 181.921875 7.855469 C 183.035156 7.671875 184.160156 7.542969 185.289062 7.46875 C 186.417969 7.394531 187.546875 7.375 188.675781 7.410156 C 189.808594 7.449219 190.933594 7.539062 192.054688 7.6875 C 193.179688 7.835938 194.289062 8.035156 195.390625 8.292969 Z M 195.390625 8.292969 " fill-opacity="1" fill-rule="nonzero"/></svg>